PathFileType	4	(X/Y/Z)	C:/Users/opensim2020/Desktop/walking_exp_matlab/subject01_walking04_static.trc																																																																																																																															
DataRate	CameraRate	NumFrames	NumMarkers	Units	OrigDataRate	OrigDataStartFrame	OrigNumFrames																																																																																																																											
100	100	8	43	mm	100	41	321																																																																																																																											
Frame#	Time	LFHD			RFHD			LBHD			RBHD			C7			T10			CLAV			STRN			RBAK			LSHO			LUPA			LELB			LFRM			LWRA			LWRB			LFIN			RSHO			RUPA			RELB			RFRM			RWRA			RWRB			RFIN			LASI			RASI			LPSI			RPSI			LTHI			LKNE			LTIB			LANK			LHEE			LTOE			RTHI			RKNE			RTIB			RANK			RHEE			RTOE			*39			*40			*41			*42		
		X1	Y1	Z1	X2	Y2	Z2	X3	Y3	Z3	X4	Y4	Z4	X5	Y5	Z5	X6	Y6	Z6	X7	Y7	Z7	X8	Y8	Z8	X9	Y9	Z9	X10	Y10	Z10	X11	Y11	Z11	X12	Y12	Z12	X13	Y13	Z13	X14	Y14	Z14	X15	Y15	Z15	X16	Y16	Z16	X17	Y17	Z17	X18	Y18	Z18	X19	Y19	Z19	X20	Y20	Z20	X21	Y21	Z21	X22	Y22	Z22	X23	Y23	Z23	X24	Y24	Z24	X25	Y25	Z25	X26	Y26	Z26	X27	Y27	Z27	X28	Y28	Z28	X29	Y29	Z29	X30	Y30	Z30	X31	Y31	Z31	X32	Y32	Z32	X33	Y33	Z33	X34	Y34	Z34	X35	Y35	Z35	X36	Y36	Z36	X37	Y37	Z37	X38	Y38	Z38	X39	Y39	Z39	X40	Y40	Z40	X41	Y41	Z41	X42	Y42	Z42	X43	Y43	Z43
																																																																																																																																		
41	0.4	-7.23501	1684.28955	-405.57562	-5.09615	1694.29028	-291.51627	-104.56226	1605.38098	-406.5672	-106.04441	1613.99023	-286.06647	-107.37254	1437.01563	-356.94412	-131.91893	1143.28027	-346.01355	40.23436	1376.18799	-345.95081	88.64616	1221.41858	-345.51993	-157.826	1241.9491	-276.87473	-12.3471	1398.83765	-510.53046	-33.23698	1222.50488	-606.11078	-43.17602	1074.58459	-630.22906	8.13251	966.41302	-640.48669	79.18185	854.68121	-594.3725	38.48875	848.32153	-639.15509	90.90917	781.59833	-628.54108	-29.95756	1402.26038	-199.41176	-80.94206	1213.26123	-82.17262	-65.77062	1089.82495	-55.03632	-18.04457	972.92548	-35.56625	49.87227	858.06293	-87.51485	30.73581	859.81073	-32.76427	65.11443	782.86646	-50.22121	53.91655	937.30475	-445.41132	42.86789	941.03192	-228.25342	-137.46611	951.87164	-404.18869	-143.52307	957.35077	-261.51849	0.34845	606.32349	-517.50525	-22.42101	472.23608	-507.87991	-74.76861	293.02274	-530.57709	-84.70578	71.66257	-488.35663	-124.10277	39.39581	-435.87637	64.3549	33.2935	-509.02222	-32.05928	613.2229	-157.71759	-25.24031	456.1301	-173.60066	-72.56663	288.20151	-151.15549	-79.79309	78.51072	-179.18875	-124.71573	35.56047	-227.65987	61.78949	36.98528	-164.37265	-26.73265	1722.33984	-315.83429	3101.85791	1023.3208	1973.15295	3140.67285	1021.99097	2012.52197	NaN	NaN	NaN
42	0.41	-7.24524	1684.27795	-405.58969	-5.11628	1694.29456	-291.54794	-104.5669	1605.40417	-406.57562	-106.05049	1613.95862	-286.09656	-107.43128	1437.00208	-356.95026	-131.98827	1143.26514	-345.97968	40.16922	1376.18787	-345.95639	88.60819	1221.41382	-345.49841	-157.92014	1241.95325	-276.92004	-12.39396	1398.80701	-510.52344	-33.30954	1222.48035	-606.11774	-43.26707	1074.53894	-630.21051	8.06868	966.35779	-640.49139	79.09583	854.64233	-594.36719	38.42627	848.28485	-639.12671	90.84693	781.56561	-628.53741	-30.02682	1402.245	-199.41527	-80.977	1213.2356	-82.16621	-65.80438	1089.81104	-55.02818	-18.08341	972.92218	-35.5327	49.81514	858.0509	-87.50301	30.70607	859.79919	-32.75381	65.12214	782.93079	-50.13359	53.85161	937.31494	-445.37225	42.83136	941.01587	-228.22832	-137.53409	951.87134	-404.1684	-143.5963	957.35126	-261.4888	0.30296	606.32629	-517.48737	-22.4602	472.23425	-507.86746	-74.81365	293.04388	-530.56787	-84.7535	71.66106	-488.30798	-124.10928	39.36418	-435.86365	64.31336	33.29591	-509.05408	-32.1774	613.20746	-157.72935	-25.30954	456.13922	-173.56903	-72.61807	288.1691	-151.13742	-79.80785	78.54055	-179.18904	-124.7548	35.56442	-227.66708	61.77474	36.97737	-164.38234	-26.76593	1722.33374	-315.8804	3101.92676	1023.27118	1973.13171	3140.57422	1021.96466	2012.50427	NaN	NaN	NaN
43	0.42	-7.22331	1684.26721	-405.616	-5.11894	1694.27832	-291.56995	-104.58463	1605.43262	-406.56564	-106.08453	1613.99548	-286.09467	-107.46706	1437.005	-356.96506	-132.06261	1143.24634	-345.97269	40.12112	1376.17688	-345.95023	88.53233	1221.39563	-345.4975	-157.94832	1241.95044	-276.9342	-12.45754	1398.80005	-510.53568	-33.40106	1222.44189	-606.10803	-43.35519	1074.48682	-630.17688	7.97983	966.36511	-640.51434	79.0316	854.61316	-594.40039	38.35199	848.27124	-639.13104	90.78396	781.55902	-628.53046	-30.09298	1402.24768	-199.41052	-81.04339	1213.21338	-82.18539	-65.86478	1089.7998	-55.02146	-18.12042	972.92023	-35.53159	49.77468	858.05475	-87.51095	30.65526	859.80273	-32.72624	64.97801	782.78235	-50.59599	53.79848	937.3042	-445.34912	42.76149	941.02881	-228.24229	-137.60402	951.86517	-404.15173	-143.63553	957.34241	-261.48837	0.24624	606.31055	-517.46185	-22.5086	472.23294	-507.86108	-74.82137	293.0112	-530.54681	-84.72733	71.63895	-488.3042	-124.14495	39.39322	-435.84879	64.33096	33.29657	-509.02789	-32.24256	613.18073	-157.7002	-25.36362	456.13489	-173.55426	-72.69319	288.16568	-151.14311	-79.8584	78.49252	-179.1653	-124.74543	35.58808	-227.66362	61.77226	37.0148	-164.37973	-26.72669	1722.36182	-315.86929	3102.12305	1023.82245	1972.9519	3140.54736	1022.03735	2012.55078	NaN	NaN	NaN
44	0.43	-7.21016	1684.27246	-405.62473	-5.08454	1694.27808	-291.57651	-104.60548	1605.43274	-406.59644	-106.085	1614.02686	-286.13629	-107.50951	1437.01917	-356.93027	-132.14122	1143.28186	-345.95413	40.04406	1376.1731	-345.95065	88.49609	1221.38757	-345.49872	-158.00615	1241.92798	-276.92615	-12.50088	1398.78479	-510.53394	-33.47891	1222.44446	-606.12433	-43.42106	1074.49915	-630.20184	7.91735	966.35541	-640.51721	78.96479	854.57294	-594.40607	38.30412	848.24384	-639.13452	90.75455	781.54694	-628.54431	-30.13342	1402.25024	-199.43166	-81.10028	1213.2301	-82.18172	-65.90195	1089.79688	-55.00383	-18.16603	972.91553	-35.515	49.75805	858.06946	-87.49187	30.61686	859.81439	-32.73772	65.01582	782.86517	-50.31031	53.75121	937.30945	-445.36584	42.77613	941.03961	-228.18251	-137.62451	951.87292	-404.11826	-143.68927	957.38104	-261.47226	0.2145	606.33063	-517.48499	-22.54401	472.2475	-507.86746	-74.85561	293.03497	-530.55811	-84.72045	71.63825	-488.33612	-124.10412	39.34725	-435.86133	64.31544	33.29882	-509.05316	-32.31067	613.22913	-157.71376	-25.476	456.11719	-173.55241	-72.762	288.16623	-151.15547	-79.83446	78.48946	-179.16794	-124.74728	35.59683	-227.66693	61.75338	36.98365	-164.38051	-26.72794	1722.36829	-315.88977	3101.95703	1023.50232	1973.06665	3140.60303	1022.0094	2012.55408	NaN	NaN	NaN
45	0.44	-7.19797	1684.25	-405.63208	-5.0863	1694.26172	-291.59113	-104.58989	1605.45178	-406.61761	-106.10271	1614.05005	-286.13467	-107.5409	1437.0166	-356.90027	-132.18202	1143.27661	-345.94583	39.99274	1376.16016	-345.95932	88.47324	1221.38867	-345.4964	-158.07567	1241.94958	-276.92764	-12.5511	1398.75513	-510.54172	-33.54381	1222.4054	-606.11298	-43.45436	1074.4397	-630.19604	7.83319	966.31677	-640.52423	78.89007	854.55688	-594.42926	38.2373	848.22894	-639.13232	90.68635	781.51044	-628.53217	-30.17619	1402.24646	-199.40375	-81.16439	1213.21558	-82.16866	-65.97511	1089.78503	-55.02047	-18.227	972.91461	-35.52449	49.69507	858.02783	-87.46101	30.56633	859.76544	-32.71223	64.97857	782.87494	-50.30233	53.71423	937.32361	-445.34796	42.68214	941.00775	-228.20854	-137.70125	951.87891	-404.0863	-143.71657	957.37262	-261.45529	0.17777	606.31519	-517.48914	-22.58233	472.22781	-507.85779	-74.87543	293.01508	-530.55383	-84.74599	71.64776	-488.36343	-124.16927	39.38055	-435.84238	64.28873	33.30307	-509.04889	-32.36946	613.21527	-157.69388	-25.55359	456.14026	-173.52142	-72.79585	288.1557	-151.18105	-79.83647	78.50522	-179.12341	-124.69974	35.58819	-227.59628	61.75885	37.00019	-164.37909	-26.71093	1722.34937	-315.87506	3101.95264	1023.13684	1973.10291	3140.50708	1022.10834	2012.6272	NaN	NaN	NaN
46	0.45	-7.19295	1684.24377	-405.64386	-5.07701	1694.27917	-291.60156	-104.60548	1605.47888	-406.62762	-106.11781	1614.052	-286.17145	-107.60254	1437.01526	-356.91199	-132.23846	1143.25769	-345.90573	39.92958	1376.16187	-345.98129	88.39387	1221.38403	-345.4758	-158.1236	1241.96301	-276.89575	-12.63342	1398.75891	-510.52237	-33.61694	1222.39478	-606.12439	-43.53815	1074.42383	-630.19879	7.7659	966.29871	-640.53583	78.82419	854.54248	-594.44312	38.17408	848.18939	-639.12213	90.61253	781.51483	-628.52423	-30.20384	1402.22913	-199.42946	-81.22137	1213.17749	-82.15479	-66.02804	1089.75964	-54.99837	-18.27592	972.89874	-35.50746	49.63458	858.02899	-87.45189	30.53886	859.77332	-32.70035	64.90331	782.86841	-50.25353	53.64921	937.31757	-445.34534	42.63739	941.03131	-228.18642	-137.75896	951.87756	-404.04834	-143.81041	957.41736	-261.39163	0.11932	606.33679	-517.45996	-22.63091	472.2431	-507.83371	-74.89678	293.03174	-530.53619	-84.74226	71.66963	-488.31442	-124.10498	39.35107	-435.86404	64.3224	33.28913	-509.03464	-32.40305	613.24072	-157.71368	-25.34778	455.93204	-173.56659	-72.83288	288.1951	-151.18092	-79.85395	78.47018	-179.13237	-124.75443	35.60452	-227.63724	61.7727	37.02441	-164.38773	-26.69292	1722.37158	-315.90778	3101.85767	1023.4021	1973.05359	3140.65649	1022.02435	2012.55945	NaN	NaN	NaN
47	0.46	-7.17961	1684.25085	-405.66171	-5.09424	1694.24329	-291.59729	-104.62917	1605.49536	-406.61139	-106.1264	1614.08728	-286.17633	-107.64875	1437.0376	-356.88651	-132.33322	1143.2821	-345.89886	39.86834	1376.14722	-345.95453	88.32626	1221.3689	-345.47607	-158.19604	1241.95007	-276.87137	-12.68661	1398.75134	-510.52353	-33.67241	1222.38318	-606.13147	-43.59524	1074.44226	-630.18219	7.7046	966.30774	-640.52765	78.74015	854.51862	-594.48291	38.11552	848.18994	-639.11237	90.5286	781.50598	-628.56073	-30.26147	1402.23486	-199.42419	-81.27322	1213.18774	-82.17114	-66.06342	1089.78113	-54.96269	-18.31953	972.90344	-35.52464	49.58851	858.0531	-87.45094	30.4826	859.76349	-32.70512	64.87402	782.84698	-50.28264	53.59487	937.3219	-445.36005	42.59203	941.03571	-228.17841	-137.8123	951.89227	-404.06534	-143.85777	957.41528	-261.39014	0.07972	606.34576	-517.466	-22.67694	472.22665	-507.84131	-74.91965	293.04666	-530.54449	-84.7268	71.61287	-488.3327	-124.14765	39.36937	-435.86111	64.33121	33.28041	-509.03104	-32.44061	613.24652	-157.70618	-25.36198	455.92963	-173.56271	-72.81914	288.16611	-151.13652	-79.85693	78.49359	-179.14812	-124.73078	35.55222	-227.67732	61.77332	37.00627	-164.37361	-26.66963	1722.3833	-315.92639	3101.98242	1023.50977	1973.17139	3140.72144	1022.08368	2012.52466	NaN	NaN	NaN
48	0.47	-7.1705	1684.23169	-405.67276	-5.04296	1694.2572	-291.6196	-104.62679	1605.49609	-406.6517	-106.16277	1614.13635	-286.14917	-107.69976	1437.01929	-356.91586	-132.39026	1143.28845	-345.87622	39.81559	1376.14575	-345.98105	88.30858	1221.35327	-345.47687	-158.25015	1241.95325	-276.86526	-12.73735	1398.71912	-510.52237	-33.71648	1222.3783	-606.10956	-43.64928	1074.41016	-630.18127	7.63603	966.31219	-640.54291	78.56808	854.45428	-594.71539	38.04395	848.18604	-639.1073	90.47941	781.49963	-628.59906	-30.30288	1402.21655	-199.41002	-81.3559	1213.18982	-82.17866	-66.10816	1089.76563	-54.99686	-18.37125	972.88861	-35.50766	49.54179	858.03864	-87.43142	30.37322	859.73657	-32.68612	64.79153	782.8537	-50.26006	53.54791	937.32532	-445.33109	42.54538	941.02832	-228.16878	-137.85147	951.88196	-404.05182	-143.92023	957.40295	-261.36819	0.02787	606.34259	-517.48535	-22.69184	472.23398	-507.85992	-74.94743	293.03702	-530.53302	-84.73427	71.65034	-488.33209	-124.181	39.36689	-435.88464	64.31799	33.26748	-509.05746	-32.50584	613.23505	-157.7095	-25.67422	456.13043	-173.51147	-72.85728	288.13882	-151.13608	-79.8521	78.46731	-179.1729	-124.78794	35.57107	-227.6295	61.74704	36.98739	-164.38301	-26.64094	1722.38403	-315.935	3101.83057	1023.36652	1973.1825	3140.67725	1021.93372	2012.52759	NaN	NaN	NaN
